<mxfile host="app.diagrams.net" modified="2023-05-16T22:12:16.361Z" agent="Mozilla/5.0 (Windows NT 10.0; Win64; x64) AppleWebKit/537.36 (KHTML, like Gecko) Chrome/113.0.0.0 Safari/537.36" etag="xVAgKCrI7DrpbrVtsGMp" version="21.2.3" type="github">
  <diagram name="Page-1" id="9R3Zc_Gyksz3_oiIvIxs">
    <mxGraphModel dx="1526" dy="974" grid="1" gridSize="10" guides="1" tooltips="1" connect="1" arrows="1" fold="1" page="1" pageScale="1" pageWidth="850" pageHeight="1100" math="0" shadow="0">
      <root>
        <mxCell id="0" />
        <mxCell id="1" parent="0" />
        <mxCell id="XI3wudiz58Q5bQnYktP5-1" value="Methanol" style="shape=mxgraph.pid.vessels.tank;html=1;pointerEvents=1;align=center;verticalLabelPosition=middle;verticalAlign=middle;dashed=0;labelPosition=center;fillColor=#f8cecc;strokeColor=#b85450;" vertex="1" parent="1">
          <mxGeometry x="282.1" y="100" width="75.79" height="180" as="geometry" />
        </mxCell>
        <mxCell id="XI3wudiz58Q5bQnYktP5-2" value="Nitrous&lt;br&gt;Oxide" style="shape=mxgraph.pid.vessels.tank;html=1;pointerEvents=1;align=center;verticalLabelPosition=middle;verticalAlign=middle;dashed=0;labelPosition=center;fillColor=#dae8fc;strokeColor=#6c8ebf;" vertex="1" parent="1">
          <mxGeometry x="402.1" y="100" width="75.79" height="180" as="geometry" />
        </mxCell>
        <mxCell id="XI3wudiz58Q5bQnYktP5-4" value="" style="verticalLabelPosition=bottom;align=center;html=1;verticalAlign=top;pointerEvents=1;dashed=0;shape=mxgraph.pid2valves.valve;valveType=check;rotation=90;fillColor=#f8cecc;strokeColor=#b85450;" vertex="1" parent="1">
          <mxGeometry x="285" y="410" width="70" height="42" as="geometry" />
        </mxCell>
        <mxCell id="XI3wudiz58Q5bQnYktP5-7" value="" style="verticalLabelPosition=bottom;align=center;html=1;verticalAlign=top;pointerEvents=1;dashed=0;shape=mxgraph.pid2valves.valve;valveType=gate;actuator=solenoid;rotation=-90;fillColor=#f8cecc;strokeColor=#b85450;" vertex="1" parent="1">
          <mxGeometry x="270" y="300" width="70" height="70" as="geometry" />
        </mxCell>
        <mxCell id="XI3wudiz58Q5bQnYktP5-8" value="" style="verticalLabelPosition=bottom;align=center;html=1;verticalAlign=top;pointerEvents=1;dashed=0;shape=mxgraph.pid2valves.valve;valveType=gate;actuator=solenoid;rotation=-90;fillColor=#dae8fc;strokeColor=#6c8ebf;" vertex="1" parent="1">
          <mxGeometry x="390" y="300" width="70" height="70" as="geometry" />
        </mxCell>
        <mxCell id="XI3wudiz58Q5bQnYktP5-14" value="" style="endArrow=none;html=1;rounded=0;entryX=0.5;entryY=1;entryDx=0;entryDy=0;entryPerimeter=0;exitX=1.001;exitY=0.711;exitDx=0;exitDy=0;exitPerimeter=0;fillColor=#f8cecc;strokeColor=#b85450;" edge="1" parent="1" source="XI3wudiz58Q5bQnYktP5-7" target="XI3wudiz58Q5bQnYktP5-1">
          <mxGeometry width="50" height="50" relative="1" as="geometry">
            <mxPoint x="260" y="300" as="sourcePoint" />
            <mxPoint x="310" y="250" as="targetPoint" />
          </mxGeometry>
        </mxCell>
        <mxCell id="XI3wudiz58Q5bQnYktP5-15" value="" style="endArrow=none;html=1;rounded=0;entryX=0.5;entryY=1;entryDx=0;entryDy=0;entryPerimeter=0;exitX=1.001;exitY=0.711;exitDx=0;exitDy=0;exitPerimeter=0;fillColor=#dae8fc;strokeColor=#6c8ebf;" edge="1" parent="1">
          <mxGeometry width="50" height="50" relative="1" as="geometry">
            <mxPoint x="439.86" y="300" as="sourcePoint" />
            <mxPoint x="439.86" y="280" as="targetPoint" />
          </mxGeometry>
        </mxCell>
        <mxCell id="XI3wudiz58Q5bQnYktP5-16" value="" style="verticalLabelPosition=bottom;align=center;html=1;verticalAlign=top;pointerEvents=1;dashed=0;shape=mxgraph.pid2valves.valve;valveType=check;rotation=90;fillColor=#dae8fc;strokeColor=#6c8ebf;" vertex="1" parent="1">
          <mxGeometry x="405" y="410" width="70" height="42" as="geometry" />
        </mxCell>
        <mxCell id="XI3wudiz58Q5bQnYktP5-17" value="" style="endArrow=none;html=1;rounded=0;exitX=0.006;exitY=0.503;exitDx=0;exitDy=0;exitPerimeter=0;entryX=0.001;entryY=0.712;entryDx=0;entryDy=0;entryPerimeter=0;strokeWidth=2;fillColor=#f8cecc;strokeColor=#b85450;" edge="1" parent="1" source="XI3wudiz58Q5bQnYktP5-4" target="XI3wudiz58Q5bQnYktP5-7">
          <mxGeometry width="50" height="50" relative="1" as="geometry">
            <mxPoint x="360" y="400" as="sourcePoint" />
            <mxPoint x="410" y="350" as="targetPoint" />
          </mxGeometry>
        </mxCell>
        <mxCell id="XI3wudiz58Q5bQnYktP5-18" value="" style="endArrow=none;html=1;rounded=0;entryX=0.005;entryY=0.715;entryDx=0;entryDy=0;entryPerimeter=0;exitX=0.003;exitY=0.495;exitDx=0;exitDy=0;exitPerimeter=0;strokeWidth=2;fillColor=#dae8fc;strokeColor=#6c8ebf;" edge="1" parent="1" source="XI3wudiz58Q5bQnYktP5-16" target="XI3wudiz58Q5bQnYktP5-8">
          <mxGeometry width="50" height="50" relative="1" as="geometry">
            <mxPoint x="370" y="420" as="sourcePoint" />
            <mxPoint x="420" y="370" as="targetPoint" />
          </mxGeometry>
        </mxCell>
        <mxCell id="XI3wudiz58Q5bQnYktP5-19" value="Igniter" style="rounded=0;whiteSpace=wrap;html=1;" vertex="1" parent="1">
          <mxGeometry x="290" y="580" width="300" height="180" as="geometry" />
        </mxCell>
        <mxCell id="XI3wudiz58Q5bQnYktP5-21" value="" style="shape=trapezoid;perimeter=trapezoidPerimeter;whiteSpace=wrap;html=1;fixedSize=1;rotation=-180;size=15;fillColor=#f8cecc;strokeColor=#b85450;" vertex="1" parent="1">
          <mxGeometry x="297.5" y="480" width="45" height="22.5" as="geometry" />
        </mxCell>
        <mxCell id="XI3wudiz58Q5bQnYktP5-22" value="" style="shape=trapezoid;perimeter=trapezoidPerimeter;whiteSpace=wrap;html=1;fixedSize=1;rotation=-180;size=15;fillColor=#dae8fc;strokeColor=#6c8ebf;" vertex="1" parent="1">
          <mxGeometry x="417.5" y="480" width="45" height="22.5" as="geometry" />
        </mxCell>
        <mxCell id="XI3wudiz58Q5bQnYktP5-24" value="" style="endArrow=none;html=1;rounded=0;exitX=0.5;exitY=1;exitDx=0;exitDy=0;entryX=0.998;entryY=0.506;entryDx=0;entryDy=0;entryPerimeter=0;strokeWidth=2;fillColor=#f8cecc;strokeColor=#b85450;" edge="1" parent="1" source="XI3wudiz58Q5bQnYktP5-21" target="XI3wudiz58Q5bQnYktP5-4">
          <mxGeometry width="50" height="50" relative="1" as="geometry">
            <mxPoint x="360" y="540" as="sourcePoint" />
            <mxPoint x="360" y="480" as="targetPoint" />
          </mxGeometry>
        </mxCell>
        <mxCell id="XI3wudiz58Q5bQnYktP5-25" value="" style="endArrow=none;html=1;rounded=0;exitX=0.5;exitY=1;exitDx=0;exitDy=0;entryX=0.999;entryY=0.499;entryDx=0;entryDy=0;entryPerimeter=0;strokeWidth=2;fillColor=#dae8fc;strokeColor=#6c8ebf;" edge="1" parent="1" target="XI3wudiz58Q5bQnYktP5-16">
          <mxGeometry width="50" height="50" relative="1" as="geometry">
            <mxPoint x="439.9" y="480" as="sourcePoint" />
            <mxPoint x="440" y="470" as="targetPoint" />
          </mxGeometry>
        </mxCell>
        <mxCell id="XI3wudiz58Q5bQnYktP5-26" value="" style="endArrow=none;html=1;rounded=0;exitX=0.5;exitY=0;exitDx=0;exitDy=0;entryX=0.998;entryY=0.506;entryDx=0;entryDy=0;entryPerimeter=0;strokeWidth=1;fillColor=#f8cecc;strokeColor=#b85450;" edge="1" parent="1" source="XI3wudiz58Q5bQnYktP5-31">
          <mxGeometry width="50" height="50" relative="1" as="geometry">
            <mxPoint x="319.91" y="516.5" as="sourcePoint" />
            <mxPoint x="319.91" y="502.5" as="targetPoint" />
          </mxGeometry>
        </mxCell>
        <mxCell id="XI3wudiz58Q5bQnYktP5-28" value="" style="endArrow=none;html=1;rounded=0;entryX=0.998;entryY=0.506;entryDx=0;entryDy=0;entryPerimeter=0;strokeWidth=1;exitX=0.5;exitY=0;exitDx=0;exitDy=0;fillColor=#dae8fc;strokeColor=#6c8ebf;" edge="1" parent="1" source="XI3wudiz58Q5bQnYktP5-33">
          <mxGeometry width="50" height="50" relative="1" as="geometry">
            <mxPoint x="440" y="517" as="sourcePoint" />
            <mxPoint x="439.91" y="502.5" as="targetPoint" />
          </mxGeometry>
        </mxCell>
        <mxCell id="XI3wudiz58Q5bQnYktP5-29" value="P1" style="ellipse;whiteSpace=wrap;html=1;aspect=fixed;" vertex="1" parent="1">
          <mxGeometry x="520" y="400" width="80" height="80" as="geometry" />
        </mxCell>
        <mxCell id="XI3wudiz58Q5bQnYktP5-30" value="" style="endArrow=none;html=1;rounded=0;exitX=0.5;exitY=0;exitDx=0;exitDy=0;" edge="1" parent="1" source="XI3wudiz58Q5bQnYktP5-34">
          <mxGeometry width="50" height="50" relative="1" as="geometry">
            <mxPoint x="510" y="530" as="sourcePoint" />
            <mxPoint x="560" y="480" as="targetPoint" />
          </mxGeometry>
        </mxCell>
        <mxCell id="XI3wudiz58Q5bQnYktP5-32" value="" style="endArrow=none;html=1;rounded=0;exitX=0.107;exitY=0.002;exitDx=0;exitDy=0;entryX=0.998;entryY=0.506;entryDx=0;entryDy=0;entryPerimeter=0;strokeWidth=1;exitPerimeter=0;fillColor=#f8cecc;strokeColor=#b85450;" edge="1" parent="1" source="XI3wudiz58Q5bQnYktP5-19" target="XI3wudiz58Q5bQnYktP5-31">
          <mxGeometry width="50" height="50" relative="1" as="geometry">
            <mxPoint x="320" y="580" as="sourcePoint" />
            <mxPoint x="319.91" y="502.5" as="targetPoint" />
          </mxGeometry>
        </mxCell>
        <mxCell id="XI3wudiz58Q5bQnYktP5-31" value="" style="rounded=0;whiteSpace=wrap;html=1;fillColor=#f8cecc;strokeColor=#b85450;" vertex="1" parent="1">
          <mxGeometry x="310" y="560" width="20" height="20" as="geometry" />
        </mxCell>
        <mxCell id="XI3wudiz58Q5bQnYktP5-33" value="" style="rounded=0;whiteSpace=wrap;html=1;fillColor=#dae8fc;strokeColor=#6c8ebf;" vertex="1" parent="1">
          <mxGeometry x="430" y="560" width="20" height="20" as="geometry" />
        </mxCell>
        <mxCell id="XI3wudiz58Q5bQnYktP5-34" value="" style="rounded=0;whiteSpace=wrap;html=1;" vertex="1" parent="1">
          <mxGeometry x="550" y="560" width="20" height="20" as="geometry" />
        </mxCell>
        <mxCell id="XI3wudiz58Q5bQnYktP5-36" value="" style="rounded=0;whiteSpace=wrap;html=1;" vertex="1" parent="1">
          <mxGeometry x="405" y="760" width="70" height="70" as="geometry" />
        </mxCell>
      </root>
    </mxGraphModel>
  </diagram>
</mxfile>
